<?xml version="1.0" standalone="no"?>
<!DOCTYPE svg PUBLIC "-//W3C//DTD SVG 20010904//EN"
 "http://www.w3.org/TR/2001/REC-SVG-20010904/DTD/svg10.dtd">
<svg version="1.0" xmlns="http://www.w3.org/2000/svg"
 width="auto" height="auto" viewBox="0 0 5000.000000 1146.000000"
 preserveAspectRatio="xMidYMid meet">
<metadata>
Date A Live
</metadata>
<g transform="translate(0.000000,1146.000000) scale(0.100000,-0.100000)"
fill="#000000" stroke="none">
<path d="M6223 11138 c-52 -64 -222 -233 -345 -344 -38 -33 -68 -68 -68 -77 0
-10 97 -113 215 -229 232 -228 368 -376 427 -466 63 -96 68 -102 88 -102 12 0
44 34 91 98 40 53 139 165 221 248 88 90 148 159 148 170 0 23 -18 49 -129
185 -190 230 -528 571 -575 577 -16 2 -34 -12 -73 -60z"/>
<path d="M47809 11148 c-124 -105 -186 -153 -304 -229 -66 -43 -132 -87 -147
-99 -36 -28 -37 -68 -2 -101 87 -81 387 -436 465 -551 l40 -58 -2374 0 c-2007
0 -2376 -2 -2386 -14 -8 -10 -11 -177 -9 -625 3 -531 5 -613 18 -621 9 -6 792
-10 2067 -10 1381 0 2054 -3 2058 -10 8 -13 -51 -228 -106 -387 -185 -537
-455 -1013 -830 -1464 -135 -162 -450 -477 -614 -613 -372 -309 -722 -536
-1150 -746 -282 -139 -567 -252 -717 -284 -36 -8 -51 -37 -38 -71 5 -14 112
-128 237 -254 325 -325 540 -568 634 -716 43 -68 90 -115 116 -115 20 0 235
112 426 221 1253 720 2260 1715 2872 2839 104 191 139 271 380 870 249 621
435 1072 519 1262 31 70 56 138 56 151 0 30 -27 54 -190 167 -74 51 -246 176
-383 278 -202 151 -245 187 -236 199 18 21 166 117 229 148 73 36 120 81 120
116 0 16 -15 48 -37 76 -153 202 -608 693 -642 693 -6 0 -38 -24 -72 -52z"/>
<path d="M49111 11182 c-8 -3 -39 -25 -68 -49 -72 -58 -198 -142 -365 -242
-92 -55 -138 -88 -138 -99 0 -22 16 -45 113 -161 158 -188 350 -460 416 -588
52 -104 89 -107 203 -18 105 82 312 221 403 271 71 38 85 50 85 71 0 34 -260
392 -476 655 -124 151 -145 170 -173 160z"/>
<path d="M41418 10998 c-8 -7 -37 -42 -64 -78 -107 -142 -300 -356 -519 -576
-342 -343 -594 -562 -997 -864 -926 -697 -1975 -1238 -3133 -1615 -192 -62
-220 -74 -223 -93 -3 -17 37 -64 167 -200 285 -297 491 -551 635 -784 116
-185 112 -181 152 -173 41 7 317 129 624 274 361 171 911 458 1275 664 l80 46
2 -1632 c3 -1520 4 -1633 20 -1644 13 -10 171 -13 709 -13 l693 0 15 22 c14
20 16 237 16 2113 l0 2091 107 79 c490 364 959 792 1282 1170 57 66 111 124
120 130 9 5 54 10 101 11 164 3 244 70 196 162 -25 47 -81 92 -486 395 -217
162 -464 347 -549 411 -156 118 -187 132 -223 104z"/>
<path d="M13710 10851 c-13 -9 -15 -385 -17 -3268 -2 -2046 1 -3264 7 -3273 8
-13 98 -15 688 -18 433 -1 689 1 706 8 l26 9 2 1700 3 1699 155 -69 c413 -185
881 -477 1360 -848 184 -142 407 -331 545 -461 115 -108 150 -129 184 -111 10
6 51 65 91 133 166 278 362 576 534 813 121 168 126 175 126 211 0 29 -10 42
-77 100 -266 226 -760 567 -1248 861 -472 283 -1242 693 -1303 693 -10 0 -30
-12 -44 -27 -30 -33 -146 -201 -253 -368 l-75 -118 0 959 c0 670 3 971 11 999
7 26 28 55 59 85 57 54 80 96 80 148 0 44 -28 77 -78 91 -93 27 -486 48 -1057
56 -277 5 -415 3 -425 -4z"/>
<path d="M1212 10630 c-12 -5 -27 -21 -32 -35 -6 -16 -10 -242 -10 -584 0
-465 2 -560 14 -577 14 -19 48 -19 2064 -22 1127 -1 2067 1 2088 6 l39 8 0
594 0 594 -25 13 c-20 10 -440 13 -2070 12 -1204 0 -2054 -4 -2068 -9z m473
-224 c80 -34 122 -98 132 -199 12 -128 -34 -234 -119 -279 -36 -18 -63 -23
-175 -26 l-133 -4 0 267 0 267 128 -4 c90 -3 139 -10 167 -22z m550 -243 l103
-263 -33 0 c-32 0 -34 2 -61 80 l-29 80 -120 0 -120 0 -29 -80 c-27 -76 -30
-80 -58 -80 -25 0 -29 3 -24 18 4 9 50 129 104 265 l96 248 34 -3 35 -3 102
-262z m535 242 c0 -25 -1 -25 -90 -25 l-90 0 0 -240 0 -240 -30 0 -30 0 0 240
0 240 -90 0 c-89 0 -90 0 -90 25 l0 25 210 0 210 0 0 -25z m430 0 l0 -25 -150
0 -150 0 0 -90 0 -90 140 0 140 0 0 -25 0 -25 -140 0 -140 0 0 -100 0 -100
150 0 150 0 0 -25 0 -25 -180 0 -180 0 0 265 0 265 180 0 180 0 0 -25z"/>
<path d="M1450 10166 l0 -216 78 0 c42 0 93 4 111 10 82 23 129 118 118 237
-13 136 -56 174 -208 181 l-99 5 0 -217z"/>
<path d="M2085 10359 c-2 -8 -23 -63 -45 -123 -22 -60 -40 -113 -40 -117 0 -5
43 -9 95 -9 52 0 95 4 95 8 0 16 -81 237 -90 246 -6 6 -11 4 -15 -5z"/>
<path d="M31082 10618 c-9 -9 -12 -153 -12 -585 0 -556 1 -573 19 -583 14 -7
710 -10 2179 -10 2079 0 2160 1 2175 18 15 17 17 72 17 580 0 496 -2 562 -16
576 -14 14 -226 16 -2183 16 -1672 0 -2170 -3 -2179 -12z m288 -428 l0 -240
130 0 130 0 0 -25 0 -25 -165 0 -165 0 0 265 0 265 35 0 35 0 0 -240z m430
-25 l0 -265 -30 0 -30 0 0 265 0 265 30 0 30 0 0 -265z m229 37 c44 -125 81
-233 81 -240 0 -26 17 -10 29 27 15 51 158 431 164 438 3 2 16 3 30 1 24 -3
24 -4 -77 -263 l-102 -260 -33 0 -34 0 -98 254 c-55 140 -99 259 -99 263 0 4
13 8 29 8 28 0 29 -3 110 -228z m791 203 l0 -25 -160 0 -160 0 0 -90 0 -90
150 0 150 0 0 -25 0 -25 -150 0 -150 0 0 -100 0 -100 165 0 165 0 0 -25 0 -25
-195 0 -195 0 0 265 0 265 190 0 190 0 0 -25z"/>
<path d="M26465 10530 c-45 -22 -85 -32 -155 -40 -61 -6 -1070 -10 -2791 -10
l-2696 0 -19 -21 c-18 -20 -19 -47 -22 -608 -1 -322 0 -596 3 -608 3 -12 12
-29 21 -37 14 -14 242 -16 2350 -16 2252 0 2334 -1 2334 -18 0 -10 -31 -70
-68 -133 -223 -374 -541 -769 -932 -1154 -116 -115 -121 -119 -116 -85 16 97
27 339 25 544 l-2 230 24 18 c72 55 104 85 130 121 44 61 37 122 -19 151 -53
27 -383 53 -1161 91 -256 13 -316 13 -323 3 -4 -7 -5 -67 0 -133 11 -179 7
-634 -7 -765 -70 -672 -263 -1224 -602 -1725 -308 -455 -759 -853 -1234 -1090
-33 -17 -60 -37 -60 -45 0 -8 72 -64 161 -125 351 -240 639 -467 862 -676 40
-38 79 -69 87 -69 8 0 69 38 135 85 789 562 1357 1288 1692 2164 109 285 202
628 250 921 12 74 23 136 24 138 4 5 215 -131 317 -205 214 -154 400 -326 505
-466 39 -52 75 -90 89 -93 39 -10 87 26 219 166 446 475 990 1227 1513 2094
358 593 413 713 355 777 -30 34 -743 620 -772 635 -38 19 -49 18 -117 -16z
m-5053 -535 c125 -305 117 -277 76 -273 -31 3 -34 7 -62 81 l-29 77 -118 0
-118 0 -28 -80 c-27 -78 -29 -80 -61 -80 -18 0 -31 3 -29 8 3 4 46 115 97 247
51 132 95 246 97 253 4 8 19 12 41 10 l35 -3 99 -240z"/>
<path d="M21228 10064 l-46 -134 94 0 c52 0 94 4 94 8 0 7 -89 254 -93 259 -1
1 -23 -59 -49 -133z"/>
<path d="M5864 10233 c-40 -54 -214 -232 -319 -326 -83 -74 -114 -109 -115
-130 0 -5 97 -103 215 -219 231 -226 368 -375 427 -466 63 -96 68 -102 88
-102 13 0 44 33 92 97 40 54 139 166 221 249 86 88 147 159 147 170 0 73 -640
764 -707 764 -12 0 -32 -16 -49 -37z"/>
<path d="M35539 8925 c-3 -2 -59 -19 -124 -36 l-120 -32 -2516 3 c-1868 1
-2522 -1 -2538 -9 l-21 -12 0 -603 c0 -541 2 -604 16 -610 9 -3 946 -6 2083
-6 1725 0 2070 -2 2086 -14 17 -12 15 -19 -40 -122 -339 -636 -829 -1176
-1436 -1582 -352 -236 -792 -449 -1204 -582 -144 -46 -160 -53 -192 -83 -41
-37 -30 -60 64 -139 274 -229 499 -488 691 -799 40 -64 79 -120 88 -123 36
-14 95 -4 219 38 1236 420 2370 1506 3255 3121 163 296 402 802 454 961 10 31
14 59 9 72 -5 11 -60 56 -123 99 -172 118 -362 257 -473 347 -137 111 -162
127 -178 111z"/>
<path d="M190 8760 c-13 -8 -15 -88 -18 -598 -1 -375 1 -599 8 -616 l10 -26
1290 0 1291 0 24 -24 c18 -18 23 -32 20 -53 -3 -15 -14 -91 -25 -168 -140
-983 -834 -1686 -1905 -1930 -66 -15 -126 -29 -132 -31 -7 -2 -13 -14 -13 -28
0 -18 20 -42 72 -89 40 -36 134 -119 208 -184 289 -256 515 -514 655 -745 13
-21 29 -34 46 -36 15 -2 96 24 185 59 1246 485 2032 1420 2198 2614 23 167 27
220 35 411 6 157 8 177 26 190 16 12 197 14 1165 14 878 0 1149 3 1158 12 9 9
12 157 12 605 0 580 0 593 -20 613 -20 20 -33 20 -3147 20 -1953 0 -3134 -4
-3143 -10z"/>
<path d="M19542 8509 c-98 -15 -239 -64 -325 -113 -224 -128 -376 -319 -454
-573 -25 -82 -27 -101 -27 -268 0 -167 2 -186 27 -268 104 -339 364 -585 704
-669 117 -28 313 -30 428 -4 225 51 427 182 567 366 63 82 131 221 160 325 18
68 22 105 22 250 0 196 -15 269 -84 414 -126 263 -352 448 -638 522 -90 23
-286 33 -380 18z"/>
<path d="M28175 8509 c-311 -45 -595 -259 -730 -551 -97 -211 -112 -485 -38
-706 63 -190 191 -365 349 -478 87 -62 234 -130 340 -155 125 -31 323 -31 447
-1 379 94 667 400 727 775 16 97 8 322 -14 402 -89 322 -315 567 -621 672
-142 48 -310 64 -460 42z"/>
<path d="M6927 8213 c-4 -3 -7 -300 -7 -660 0 -640 0 -653 20 -673 20 -20 33
-20 3159 -20 1727 0 3146 3 3155 6 14 6 16 74 16 670 0 646 -1 664 -19 674
-22 11 -6313 15 -6324 3z"/>
<path d="M16738 3468 c-13 -35 -292 -773 -619 -1640 l-594 -1578 -202 0 -203
0 0 -35 0 -35 500 0 500 0 0 35 0 35 -254 2 -253 3 236 625 236 625 530 2 530
3 236 -628 236 -627 -253 -3 -254 -2 0 -35 0 -35 715 0 715 0 0 35 0 35 -207
2 -206 3 -622 1635 -621 1635 -61 3 -61 3 -24 -63z m126 -1228 l244 -645 -243
-3 c-134 -1 -356 -1 -493 0 l-249 3 246 652 c135 359 247 649 249 645 1 -4
112 -297 246 -652z"/>
<path d="M12843 3453 l-523 -3 0 -35 0 -35 255 0 255 0 0 -1565 0 -1565 -255
0 -255 0 0 -34 0 -33 483 -7 c265 -3 635 -9 822 -12 577 -11 760 17 1065 162
347 166 627 453 763 784 153 370 167 897 36 1292 -179 541 -591 887 -1207
1013 -175 36 -307 45 -627 43 -159 -2 -525 -4 -812 -5z m1032 -73 c343 -33
598 -142 786 -337 93 -96 147 -175 210 -307 121 -256 178 -605 166 -1026 -11
-368 -63 -602 -194 -864 -203 -407 -438 -558 -943 -607 -121 -11 -472 -7 -562
7 l-38 7 0 1563 0 1563 113 4 c263 7 358 6 462 -3z"/>
<path d="M25521 3433 c-14 -36 -1131 -3244 -1131 -3249 0 -2 219 -3 486 -2
l487 3 72 265 72 265 529 3 529 2 75 -270 75 -270 498 0 c273 0 497 2 497 5 0
4 -1122 3223 -1135 3258 -7 16 -41 17 -525 17 l-518 0 -11 -27z m683 -1421
c87 -306 161 -563 163 -569 4 -10 -64 -13 -322 -13 l-327 0 4 23 c10 51 313
1117 318 1117 3 0 76 -251 164 -558z"/>
<path d="M28140 1820 l0 -1640 1205 0 1205 0 0 405 0 405 -730 0 -730 0 0
1235 0 1235 -475 0 -475 0 0 -1640z"/>
<path d="M30670 1820 l0 -1640 480 0 480 0 0 1640 0 1640 -480 0 -480 0 0
-1640z"/>
<path d="M31744 3438 c3 -13 260 -751 572 -1641 l567 -1617 516 0 517 0 562
1633 c309 899 562 1637 562 1640 0 4 -217 6 -482 5 l-482 -3 -332 -1160 c-183
-638 -333 -1162 -334 -1165 -1 -3 -151 510 -334 1140 -183 630 -336 1155 -340
1168 l-7 22 -496 0 -495 0 6 -22z"/>
<path d="M35160 1820 l0 -1640 1290 0 1290 0 0 370 0 370 -810 0 -810 0 0 325
0 325 730 0 730 0 0 335 0 335 -730 0 -730 0 0 260 0 260 785 0 785 0 0 350 0
350 -1265 0 -1265 0 0 -1640z"/>
<path d="M17980 3025 l0 -425 29 0 c27 0 30 4 65 111 70 211 160 364 283 480
132 124 232 164 446 179 78 5 186 10 240 10 l97 0 0 -1565 0 -1565 -255 0
-255 0 0 -35 0 -35 745 0 745 0 0 35 0 35 -255 0 -255 0 0 1567 0 1566 208 -7
c114 -4 239 -13 277 -21 100 -21 218 -82 298 -155 122 -112 243 -326 303 -535
18 -63 20 -65 51 -65 l33 0 0 425 0 425 -1400 0 -1400 0 0 -425z"/>
<path d="M20890 3415 l0 -35 255 0 255 0 0 -1565 0 -1565 -255 0 -255 0 0 -35
0 -35 1405 0 1405 0 0 505 0 505 -30 0 c-23 0 -31 -5 -34 -22 -65 -317 -169
-532 -332 -689 -120 -115 -237 -178 -389 -210 -81 -17 -140 -19 -567 -19
l-478 0 0 820 0 820 233 0 c174 0 247 -4 290 -15 145 -38 240 -120 311 -268
39 -82 94 -258 112 -359 6 -35 9 -38 40 -38 l34 0 0 716 0 715 -31 -3 c-31 -3
-32 -5 -65 -121 -97 -338 -186 -459 -384 -522 -44 -15 -103 -19 -297 -23
l-243 -4 0 706 0 706 353 0 c531 -1 654 -14 805 -87 85 -42 177 -126 242 -222
49 -73 136 -253 170 -353 22 -62 26 -68 52 -68 l28 0 0 400 0 400 -1315 0
-1315 0 0 -35z"/>
</g>
</svg>
