<?xml version="1.0" encoding="iso-8859-1"?>
<!-- Generator: Adobe Illustrator 19.0.0, SVG Export Plug-In . SVG Version: 6.00 Build 0)  -->
<svg version="1.1" id="Capa_1" xmlns="http://www.w3.org/2000/svg" xmlns:xlink="http://www.w3.org/1999/xlink" x="0px" y="0px"
	 viewBox="0 0 512 512" style="enable-background:new 0 0 512 512;" xml:space="preserve">
<g>
	<g>
		<path d="M440.048,323.494c33.009-38.764,49.705-75.614,49.705-109.919c0-36.965-12.11-68.833-35.021-92.158
			c-9.348-9.517-20.208-17.202-32.142-22.893c0.47-8.326-0.032-50.911-53.33-98.524c11.257,40.869,1.101,71.045-7.278,87.04
			c-27.064,1.236-50.461,8.976-69.615,23.096c-10.083,7.433-17.806,15.829-23.677,23.845c-16.28-21.067-44.69-44.558-91.164-46.935
			C169.147,71.053,158.986,40.874,170.244,0c-53.298,47.613-53.8,90.199-53.33,98.524c-11.933,5.691-22.793,13.375-32.141,22.893
			c-22.91,23.326-35.021,55.193-35.021,92.158c0,40.691,23.492,84.963,69.839,131.765c15.789-5.857,32.226-9.06,48.258-9.06
			c0.088,0,0.176,0.004,0.264,0.004c-2.846-2.55-5.686-5.15-8.509-7.8c-45.697-42.883-69.852-82.618-69.852-114.908
			c0-51.877,32.149-86.733,80-86.733c7.449,0,14.255,0.75,20.492,2.074C239.744,143.152,271.14,214,271.14,214
			s25.856-69.707,74.722-84.732c7.095-1.547,15.019-2.425,23.89-2.425c47.851,0,80,34.855,80,86.733
			c0,32.29-24.155,72.024-69.855,114.907c-46.168,43.324-96.799,73.748-106.48,79.408c-1.667,0.974-4.132,2.41-6.516,3.795
			c-28.364-19.038-59.095-35.407-99.051-35.407c-25.229,0-52.926,11.736-73.579,30.335c-18.711-8.525-41.607-5.144-56.993,10.155
			c-8.167,8.121-13.839,22.308-17.851,44.647c-2.535,14.121-3.485,26.565-3.524,27.089l-1.75,23.359l23.346-1.934
			c0.521-0.043,12.921-1.087,27.005-3.707c29.19-5.432,39.345-12.801,44.443-17.87c9.608-9.554,14.9-22.265,14.9-35.792
			c0-5.637-0.931-11.128-2.698-16.312c14.581-13.03,33.69-19.971,46.701-19.971c36.603,0,63.938,19.328,95.589,41.708
			C299.244,483.305,339.827,512,399.056,512c29.524,0,54.712-9.419,72.837-27.237c16.736-16.453,25.953-38.742,25.953-62.763
			C497.846,383.576,478.423,350.53,440.048,323.494z M80.919,459.81c-2.923,2.148-11.408,4.66-21.778,6.722
			c1.973-10.256,4.411-18.652,6.545-21.596c4.223-3.983,10.916-3.919,15.058,0.198c2.001,1.99,3.104,4.629,3.104,7.429
			C83.846,455.278,82.809,457.842,80.919,459.81z M399.056,472c-38.983,0-67.814-15.925-96.11-35.209
			c19.991-12.349,63.756-41.073,104.322-79.14c1.683-1.579,3.339-3.156,4.971-4.729c30.653,20.054,45.607,42.755,45.607,69.078
			C457.846,446.888,439.668,472,399.056,472z"/>
	</g>
</g>
<g>
</g>
<g>
</g>
<g>
</g>
<g>
</g>
<g>
</g>
<g>
</g>
<g>
</g>
<g>
</g>
<g>
</g>
<g>
</g>
<g>
</g>
<g>
</g>
<g>
</g>
<g>
</g>
<g>
</g>
</svg>
