<svg height="512" viewBox="0 0 58 58" width="512" xmlns="http://www.w3.org/2000/svg"><g id="Page-1" fill="none" fill-rule="evenodd"><g id="023---Wicked-Love" fill-rule="nonzero"><path id="Shape" d="m48.55 15.78c2.6-.92 6.21-1.45 9.09.93.2100822.1723346.3390903.4242295.356158.6954166s-.0793404.5372691-.266158.7345834c-.96 1.02-2.45 3.04-1.73 5.18.1761674.4546763-.0012807.9701207-.42 1.22-1.2.66-3.3 2.11-3.43 4.05-.0294941.5448301-.4844442.9688612-1.03.96-1.9302499.025029-3.8302735.4829484-5.56 1.34h-33.12c-1.7297265-.8570516-3.6297501-1.314971-5.56-1.34-.54555584.0088612-1.00050592-.4151699-1.03-.96-.13-1.94-2.23-3.39-3.43-4.05-.41871932-.2498793-.59616739-.7653237-.42-1.22.72-2.14-.77-4.16-1.73-5.18-.18681756-.1973143-.28322572-.4633963-.266158-.7345834s.14607582-.523082.356158-.6954166c2.88-2.38 6.49-1.85 9.09-.93z" fill="#802f34"/><path id="Shape" d="m20.3 7.06c-.42-.04-.85-.06-1.3-.06-3.3575985.07215135-6.4154783 1.94892506-8 4.91.0043411-4.28338879 1.5970294-8.4129765 4.47-11.59.2573166-.27712954.6517881-.38026477 1.0118168-.26454125.3600288.11572353.6205297.42938558.6681832.80454125.4591925 2.31725127 1.5492388 4.46273924 3.15 6.2z" fill="#f9eab0"/><path id="Shape" d="m47 11.91c-1.5845217-2.96107494-4.6424015-4.83784865-8-4.91-.45 0-.88.02-1.3.06 1.6007612-1.73726076 2.6908075-3.88274873 3.15-6.2.0476535-.37515567.3081544-.68881772.6681832-.80454125.3600287-.11572352.7545002-.01258829 1.0118168.26454125 2.8729706 3.1770235 4.4656589 7.30661121 4.47 11.59z" fill="#f9eab0"/><path id="Shape" d="m49 19.55c0 6.73-4.22 18.34-20 23.45-15.78-5.11-20-16.72-20-23.45-.02955317-2.6798202.66117308-5.3183945 2-7.64 1.5845217-2.96107494 4.6424015-4.83784865 8-4.91.45 0 .88.02 1.3.06l.01.01c3.347845.34100202 6.4473288 1.92106111 8.69 4.43 2.2426712-2.50893889 5.342155-4.08899798 8.69-4.43l.01-.01c.42-.04.85-.06 1.3-.06 3.3575985.07215135 6.4154783 1.94892506 8 4.91v.01c1.3375507 2.3184887 2.0282492 4.9535034 2 7.63z" fill="#ff5364"/><path id="Shape" d="m13 20.545c-.5522847 0-1-.4477153-1-1 0-4.691 2.618-9.545 7-9.545.5522847 0 1 .4477153 1 1s-.4477153 1-1 1c-3.088 0-5 3.917-5 7.545 0 .5522847-.4477153 1-1 1z" fill="#fff"/><path id="Shape" d="m20.4 38.94c-.2657438.9982834-.4002102 2.0269514-.4 3.06.0018507 5.0982766 3.2249483 9.6388234 8.03721 11.3224397 4.8122618 1.6836164 10.1630134.1427137 13.34279-3.8424397l3.23 2.36c-4.2026665 5.3812285-11.3571194 7.5025607-17.8137909 5.2818809-6.4566716-2.2206798-10.7926924-8.2939959-10.7962091-15.1218809-.0007938-1.9309972.3516746-3.8458495 1.04-5.65v-.01z" fill="#802f34"/><path id="Shape" d="m47.121 52.732c.5725974-3.4978874 1.4222721-6.9447379 2.541-10.308.0621931-.2036444-.0114079-.4243352-.1833873-.5498824s-.4046022-.1284038-.5796127-.0071176c-2.865285 2.0868015-5.8914224 3.9432783-9.05 5.552-.1657132.0702259-.280897.224095-.3015898.4028808s.0562988.3548974.2015898.4611192l6.583 4.811c.1458635.1043909.3364692.1226506.4994989.0478512s.2735015-.2311961.2895011-.4098512z" fill="#ff5364"/><path id="Shape" d="m49 19.55c0 6.73-4.22 18.34-20 23.45-8.11-2.63-13.16-6.97-16.16-11.48 2.3584602-1.8571086 5.0857443-3.1900687 8-3.91 4.47-1.08 9.54-.81 13.14-3.67 2.76-2.19 4.03-5.84 4.13-9.36.0147699-2.5118095-.3081204-5.01420979-.96-7.44.18-.03.36-.05.54-.07l.01-.01c.42-.04.85-.06 1.3-.06 3.3575985.07215135 6.4154783 1.94892506 8 4.91v.01c1.3375507 2.3184887 2.0282492 4.9535034 2 7.63z" fill="#df4d60"/></g></g></svg>