<svg id="Capa_1" enable-background="new 0 0 511.952 511.952" height="512" viewBox="0 0 511.952 511.952" width="512" xmlns="http://www.w3.org/2000/svg"><g id="Search"><circle cx="319.952" cy="192" fill="#ff4db3" r="192"/><path d="m163.597 303.1-95.715 95.715 11.314 33.941 33.941 11.314 95.715-95.715-2.037-43.218z" fill="#ff8de4"/><path d="m45.255 421.442 33.941 11.314 11.314 33.941-45.255 45.255-45.255-45.255z" fill="#ff8de4"/><path d="m248.913 308.48-40 40c-8.641-6.08-16.961-13.121-24.641-20.801s-14.721-16-20.801-24.641l40-40z" fill="#ff0068"/><path d="m47.148 416.804h64v32h-64z" fill="#ff4db3" transform="matrix(.707 .707 -.707 .707 329.221 70.799)"/><circle cx="319.952" cy="192" fill="#ff8de4" r="96"/><path d="m367.952 176v32h-64v-80h32v48z" fill="#ff4db3"/></g></svg>